<?xml version="1.0" encoding="UTF-8"?>
<svg width="120" height="32" viewBox="0 0 120 32" fill="none" xmlns="http://www.w3.org/2000/svg">
  <!-- Granary text -->
  <text x="32" y="22" font-family="Arial, sans-serif" font-size="20" font-weight="600" fill="white">
    Granary
  </text>
  <!-- Wheat icon -->
  <path d="M16 4C14.5 4 13 4.5 12 5.5C11 4.5 9.5 4 8 4C4.7 4 2 6.7 2 10C2 16 12 24 12 24C12 24 22 16 22 10C22 6.7 19.3 4 16 4Z" fill="#3B82F6"/>
  <path d="M12 7C11 6 9.5 5.5 8 5.5C5.5 5.5 3.5 7.5 3.5 10C3.5 14.5 12 21 12 21" stroke="#2563EB" stroke-width="1.5"/>
  <path d="M12 7C13 6 14.5 5.5 16 5.5C18.5 5.5 20.5 7.5 20.5 10C20.5 14.5 12 21 12 21" stroke="#2563EB" stroke-width="1.5"/>
</svg> 